<mxfile host="app.diagrams.net" modified="2021-11-26T14:21:51.109Z" agent="5.0 (Windows NT 6.1; WOW64) AppleWebKit/537.36 (KHTML, like Gecko) Chrome/94.0.4606.81 Safari/537.36" etag="pzA-VrjYF6PmJ1aPgmMM" version="15.8.6" type="gitlab">
  <diagram id="ulkMl8fYRYSaDrusskZa" name="Page-1">
    <mxGraphModel dx="1820" dy="853" grid="1" gridSize="10" guides="1" tooltips="1" connect="1" arrows="1" fold="1" page="1" pageScale="1" pageWidth="827" pageHeight="1169" math="0" shadow="0">
      <root>
        <mxCell id="0" />
        <mxCell id="1" parent="0" />
        <mxCell id="CedkutMwdIcKw9SJhQFs-62" value="" style="rounded=1;whiteSpace=wrap;html=1;fillColor=#f8cecc;strokeColor=none;" parent="1" vertex="1">
          <mxGeometry x="-80" y="320" width="890" height="1160" as="geometry" />
        </mxCell>
        <mxCell id="CedkutMwdIcKw9SJhQFs-61" value="" style="rounded=1;whiteSpace=wrap;html=1;fillColor=#dae8fc;strokeColor=none;" parent="1" vertex="1">
          <mxGeometry x="-75" width="890" height="290" as="geometry" />
        </mxCell>
        <mxCell id="CedkutMwdIcKw9SJhQFs-1" value="Utilisateur&lt;br&gt;" style="shape=umlActor;verticalLabelPosition=bottom;verticalAlign=top;html=1;outlineConnect=0;labelBorderColor=none;" parent="1" vertex="1">
          <mxGeometry x="-50" y="90" width="30" height="60" as="geometry" />
        </mxCell>
        <mxCell id="CedkutMwdIcKw9SJhQFs-2" value="Joueur&lt;br&gt;" style="shape=umlActor;verticalLabelPosition=bottom;verticalAlign=top;html=1;outlineConnect=0;" parent="1" vertex="1">
          <mxGeometry x="210" y="380" width="30" height="60" as="geometry" />
        </mxCell>
        <mxCell id="CedkutMwdIcKw9SJhQFs-3" value="" style="endArrow=classic;html=1;exitX=1;exitY=0.3333333333333333;exitDx=0;exitDy=0;exitPerimeter=0;entryX=0;entryY=0.5;entryDx=0;entryDy=0;" parent="1" source="CedkutMwdIcKw9SJhQFs-1" target="CedkutMwdIcKw9SJhQFs-4" edge="1">
          <mxGeometry width="50" height="50" relative="1" as="geometry">
            <mxPoint x="40" y="130" as="sourcePoint" />
            <mxPoint x="240" y="130" as="targetPoint" />
          </mxGeometry>
        </mxCell>
        <mxCell id="CedkutMwdIcKw9SJhQFs-4" value="Se connecter" style="ellipse;whiteSpace=wrap;html=1;" parent="1" vertex="1">
          <mxGeometry x="240" y="180" width="120" height="70" as="geometry" />
        </mxCell>
        <mxCell id="CedkutMwdIcKw9SJhQFs-5" value="Créer un compte" style="ellipse;whiteSpace=wrap;html=1;" parent="1" vertex="1">
          <mxGeometry x="240" y="20" width="120" height="70" as="geometry" />
        </mxCell>
        <mxCell id="CedkutMwdIcKw9SJhQFs-8" value="" style="endArrow=classic;html=1;entryX=0;entryY=0.5;entryDx=0;entryDy=0;exitX=1;exitY=0.3333333333333333;exitDx=0;exitDy=0;exitPerimeter=0;" parent="1" source="CedkutMwdIcKw9SJhQFs-1" target="CedkutMwdIcKw9SJhQFs-5" edge="1">
          <mxGeometry width="50" height="50" relative="1" as="geometry">
            <mxPoint x="40" y="130" as="sourcePoint" />
            <mxPoint x="440" y="380" as="targetPoint" />
          </mxGeometry>
        </mxCell>
        <mxCell id="CedkutMwdIcKw9SJhQFs-9" value="" style="endArrow=classic;html=1;exitX=0;exitY=0.5;exitDx=0;exitDy=0;entryX=0;entryY=0.5;entryDx=0;entryDy=0;" parent="1" target="CedkutMwdIcKw9SJhQFs-10" edge="1">
          <mxGeometry width="50" height="50" relative="1" as="geometry">
            <mxPoint x="50" y="800" as="sourcePoint" />
            <mxPoint x="380" y="875" as="targetPoint" />
          </mxGeometry>
        </mxCell>
        <mxCell id="CedkutMwdIcKw9SJhQFs-10" value="Rejoindre une campagne déjà existante" style="ellipse;whiteSpace=wrap;html=1;" parent="1" vertex="1">
          <mxGeometry x="380" y="850" width="120" height="70" as="geometry" />
        </mxCell>
        <mxCell id="CedkutMwdIcKw9SJhQFs-13" value="Maitre&amp;nbsp; de jeu&lt;br&gt;" style="shape=umlActor;verticalLabelPosition=bottom;verticalAlign=top;html=1;outlineConnect=0;" parent="1" vertex="1">
          <mxGeometry x="90" y="1090" width="30" height="60" as="geometry" />
        </mxCell>
        <mxCell id="CedkutMwdIcKw9SJhQFs-18" value="" style="endArrow=classic;html=1;exitX=1;exitY=0.3333333333333333;exitDx=0;exitDy=0;exitPerimeter=0;entryX=0;entryY=0.5;entryDx=0;entryDy=0;" parent="1" source="CedkutMwdIcKw9SJhQFs-2" edge="1">
          <mxGeometry width="50" height="50" relative="1" as="geometry">
            <mxPoint x="250" y="410" as="sourcePoint" />
            <mxPoint x="370" y="484.9999999999998" as="targetPoint" />
          </mxGeometry>
        </mxCell>
        <mxCell id="CedkutMwdIcKw9SJhQFs-20" value="" style="endArrow=classic;html=1;exitX=1;exitY=0.3333333333333333;exitDx=0;exitDy=0;exitPerimeter=0;entryX=0;entryY=0.5;entryDx=0;entryDy=0;" parent="1" source="CedkutMwdIcKw9SJhQFs-2" target="CedkutMwdIcKw9SJhQFs-21" edge="1">
          <mxGeometry width="50" height="50" relative="1" as="geometry">
            <mxPoint x="250" y="410" as="sourcePoint" />
            <mxPoint x="370" y="480" as="targetPoint" />
          </mxGeometry>
        </mxCell>
        <mxCell id="CedkutMwdIcKw9SJhQFs-21" value="Créer son personnage" style="ellipse;whiteSpace=wrap;html=1;" parent="1" vertex="1">
          <mxGeometry x="370" y="540" width="120" height="70" as="geometry" />
        </mxCell>
        <mxCell id="CedkutMwdIcKw9SJhQFs-28" value="" style="endArrow=classic;html=1;exitX=1;exitY=0.3333333333333333;exitDx=0;exitDy=0;exitPerimeter=0;entryX=0;entryY=0.5;entryDx=0;entryDy=0;" parent="1" source="CedkutMwdIcKw9SJhQFs-13" target="CedkutMwdIcKw9SJhQFs-29" edge="1">
          <mxGeometry width="50" height="50" relative="1" as="geometry">
            <mxPoint x="160" y="1079.5" as="sourcePoint" />
            <mxPoint x="280" y="1079.5" as="targetPoint" />
          </mxGeometry>
        </mxCell>
        <mxCell id="CedkutMwdIcKw9SJhQFs-29" value="Gérer les lancers de dés" style="ellipse;whiteSpace=wrap;html=1;" parent="1" vertex="1">
          <mxGeometry x="380" y="950" width="120" height="70" as="geometry" />
        </mxCell>
        <mxCell id="CedkutMwdIcKw9SJhQFs-30" value="Voir les dés révélés" style="ellipse;whiteSpace=wrap;html=1;" parent="1" vertex="1">
          <mxGeometry x="370" y="390" width="120" height="70" as="geometry" />
        </mxCell>
        <mxCell id="CedkutMwdIcKw9SJhQFs-31" value="" style="endArrow=classic;html=1;exitX=1;exitY=0.3333333333333333;exitDx=0;exitDy=0;exitPerimeter=0;entryX=0;entryY=0.5;entryDx=0;entryDy=0;" parent="1" source="CedkutMwdIcKw9SJhQFs-2" target="CedkutMwdIcKw9SJhQFs-30" edge="1">
          <mxGeometry width="50" height="50" relative="1" as="geometry">
            <mxPoint x="250" y="410" as="sourcePoint" />
            <mxPoint x="330" y="315" as="targetPoint" />
          </mxGeometry>
        </mxCell>
        <mxCell id="CedkutMwdIcKw9SJhQFs-32" value="" style="endArrow=classic;html=1;exitX=1;exitY=0.3333333333333333;exitDx=0;exitDy=0;exitPerimeter=0;entryX=0;entryY=0.5;entryDx=0;entryDy=0;" parent="1" source="CedkutMwdIcKw9SJhQFs-13" target="CedkutMwdIcKw9SJhQFs-33" edge="1">
          <mxGeometry width="50" height="50" relative="1" as="geometry">
            <mxPoint x="160" y="1080" as="sourcePoint" />
            <mxPoint x="280" y="1150" as="targetPoint" />
          </mxGeometry>
        </mxCell>
        <mxCell id="CedkutMwdIcKw9SJhQFs-33" value="Gérer les éléments PNJ" style="ellipse;whiteSpace=wrap;html=1;" parent="1" vertex="1">
          <mxGeometry x="390" y="1070" width="120" height="70" as="geometry" />
        </mxCell>
        <mxCell id="CedkutMwdIcKw9SJhQFs-36" value="Extends" style="endArrow=block;endSize=16;endFill=0;html=1;dashed=1;entryX=0;entryY=0.3333333333333333;entryDx=0;entryDy=0;entryPerimeter=0;edgeStyle=orthogonalEdgeStyle;exitX=0;exitY=1;exitDx=0;exitDy=0;exitPerimeter=0;" parent="1" source="CedkutMwdIcKw9SJhQFs-1" target="CedkutMwdIcKw9SJhQFs-65" edge="1">
          <mxGeometry width="160" relative="1" as="geometry">
            <mxPoint x="-210" y="250" as="sourcePoint" />
            <mxPoint x="-200" y="440" as="targetPoint" />
            <Array as="points">
              <mxPoint x="-70" y="150" />
              <mxPoint x="-70" y="800" />
            </Array>
          </mxGeometry>
        </mxCell>
        <mxCell id="CedkutMwdIcKw9SJhQFs-39" value="" style="endArrow=classic;html=1;exitX=1;exitY=0.3333333333333333;exitDx=0;exitDy=0;exitPerimeter=0;entryX=0;entryY=0.5;entryDx=0;entryDy=0;" parent="1" source="CedkutMwdIcKw9SJhQFs-13" target="CedkutMwdIcKw9SJhQFs-40" edge="1">
          <mxGeometry width="50" height="50" relative="1" as="geometry">
            <mxPoint x="150" y="1075" as="sourcePoint" />
            <mxPoint x="280" y="1225" as="targetPoint" />
          </mxGeometry>
        </mxCell>
        <mxCell id="CedkutMwdIcKw9SJhQFs-40" value="Gérer les cartes" style="ellipse;whiteSpace=wrap;html=1;" parent="1" vertex="1">
          <mxGeometry x="380" y="1180" width="120" height="70" as="geometry" />
        </mxCell>
        <mxCell id="CedkutMwdIcKw9SJhQFs-41" value="" style="endArrow=classic;html=1;entryX=0;entryY=0.5;entryDx=0;entryDy=0;" parent="1" target="CedkutMwdIcKw9SJhQFs-42" edge="1">
          <mxGeometry width="50" height="50" relative="1" as="geometry">
            <mxPoint x="60" y="800" as="sourcePoint" />
            <mxPoint x="370" y="550" as="targetPoint" />
          </mxGeometry>
        </mxCell>
        <mxCell id="CedkutMwdIcKw9SJhQFs-42" value="Consulter données" style="ellipse;whiteSpace=wrap;html=1;" parent="1" vertex="1">
          <mxGeometry x="370" y="630" width="120" height="70" as="geometry" />
        </mxCell>
        <mxCell id="CedkutMwdIcKw9SJhQFs-44" value="" style="endArrow=classic;html=1;dashed=1;exitX=0;exitY=0.5;exitDx=0;exitDy=0;entryX=1;entryY=0.5;entryDx=0;entryDy=0;" parent="1" edge="1" target="CedkutMwdIcKw9SJhQFs-42" source="CedkutMwdIcKw9SJhQFs-45">
          <mxGeometry width="50" height="50" relative="1" as="geometry">
            <mxPoint x="570" y="580" as="sourcePoint" />
            <mxPoint x="490" y="580" as="targetPoint" />
          </mxGeometry>
        </mxCell>
        <mxCell id="CedkutMwdIcKw9SJhQFs-45" value="Consulter données d&#39;éléments PNJ visibles." style="ellipse;whiteSpace=wrap;html=1;" parent="1" vertex="1">
          <mxGeometry x="570" y="600" width="120" height="70" as="geometry" />
        </mxCell>
        <mxCell id="CedkutMwdIcKw9SJhQFs-51" value="" style="endArrow=classic;html=1;dashed=1;exitX=0;exitY=0.5;exitDx=0;exitDy=0;entryX=1;entryY=0.5;entryDx=0;entryDy=0;" parent="1" source="bmJftMlM8lcIvuCktns1-15" target="CedkutMwdIcKw9SJhQFs-40" edge="1">
          <mxGeometry width="50" height="50" relative="1" as="geometry">
            <mxPoint x="520" y="1215" as="sourcePoint" />
            <mxPoint x="400" y="1225" as="targetPoint" />
          </mxGeometry>
        </mxCell>
        <mxCell id="CedkutMwdIcKw9SJhQFs-57" value="Gérer les personnages" style="ellipse;whiteSpace=wrap;html=1;" parent="1" vertex="1">
          <mxGeometry x="380" y="1380" width="120" height="70" as="geometry" />
        </mxCell>
        <mxCell id="CedkutMwdIcKw9SJhQFs-63" value="" style="endArrow=classic;html=1;entryX=0;entryY=0.5;entryDx=0;entryDy=0;exitX=1;exitY=0.3333333333333333;exitDx=0;exitDy=0;exitPerimeter=0;" parent="1" source="CedkutMwdIcKw9SJhQFs-65" target="CedkutMwdIcKw9SJhQFs-64" edge="1">
          <mxGeometry width="50" height="50" relative="1" as="geometry">
            <mxPoint x="50" y="780" as="sourcePoint" />
            <mxPoint x="345" y="784.9999999999998" as="targetPoint" />
          </mxGeometry>
        </mxCell>
        <mxCell id="CedkutMwdIcKw9SJhQFs-64" value="Lancer des dés" style="ellipse;whiteSpace=wrap;html=1;" parent="1" vertex="1">
          <mxGeometry x="380" y="705" width="120" height="70" as="geometry" />
        </mxCell>
        <mxCell id="CedkutMwdIcKw9SJhQFs-65" value="Actor" style="shape=umlActor;verticalLabelPosition=bottom;verticalAlign=top;html=1;outlineConnect=0;fontColor=#000000;" parent="1" vertex="1">
          <mxGeometry x="20" y="780" width="30" height="60" as="geometry" />
        </mxCell>
        <mxCell id="CedkutMwdIcKw9SJhQFs-66" value="" style="endArrow=classic;html=1;exitX=1;exitY=0.3333333333333333;exitDx=0;exitDy=0;exitPerimeter=0;entryX=0;entryY=0.5;entryDx=0;entryDy=0;" parent="1" source="CedkutMwdIcKw9SJhQFs-13" target="CedkutMwdIcKw9SJhQFs-67" edge="1">
          <mxGeometry width="50" height="50" relative="1" as="geometry">
            <mxPoint x="150" y="1145" as="sourcePoint" />
            <mxPoint x="280" y="1300" as="targetPoint" />
          </mxGeometry>
        </mxCell>
        <mxCell id="CedkutMwdIcKw9SJhQFs-67" value="Gérer les campagnes" style="ellipse;whiteSpace=wrap;html=1;" parent="1" vertex="1">
          <mxGeometry x="380" y="1280" width="120" height="70" as="geometry" />
        </mxCell>
        <mxCell id="CedkutMwdIcKw9SJhQFs-69" value="" style="endArrow=block;dashed=1;endFill=0;endSize=12;html=1;fontColor=#000000;exitX=1;exitY=0.3333333333333333;exitDx=0;exitDy=0;exitPerimeter=0;entryX=0;entryY=0.3333333333333333;entryDx=0;entryDy=0;entryPerimeter=0;" parent="1" source="CedkutMwdIcKw9SJhQFs-65" target="CedkutMwdIcKw9SJhQFs-2" edge="1">
          <mxGeometry width="160" relative="1" as="geometry">
            <mxPoint x="280" y="790" as="sourcePoint" />
            <mxPoint x="440" y="790" as="targetPoint" />
          </mxGeometry>
        </mxCell>
        <mxCell id="CedkutMwdIcKw9SJhQFs-70" value="" style="endArrow=block;dashed=1;endFill=0;endSize=12;html=1;fontColor=#000000;exitX=1;exitY=0.3333333333333333;exitDx=0;exitDy=0;exitPerimeter=0;entryX=0;entryY=0.3333333333333333;entryDx=0;entryDy=0;entryPerimeter=0;" parent="1" source="CedkutMwdIcKw9SJhQFs-65" target="CedkutMwdIcKw9SJhQFs-13" edge="1">
          <mxGeometry width="160" relative="1" as="geometry">
            <mxPoint x="60" y="810" as="sourcePoint" />
            <mxPoint x="130" y="454.9999999999998" as="targetPoint" />
          </mxGeometry>
        </mxCell>
        <mxCell id="CedkutMwdIcKw9SJhQFs-71" value="" style="endArrow=classic;html=1;dashed=1;exitX=0;exitY=0.5;exitDx=0;exitDy=0;entryX=1;entryY=0.5;entryDx=0;entryDy=0;" parent="1" target="CedkutMwdIcKw9SJhQFs-42" edge="1" source="CedkutMwdIcKw9SJhQFs-72">
          <mxGeometry width="50" height="50" relative="1" as="geometry">
            <mxPoint x="570" y="659.9999999999998" as="sourcePoint" />
            <mxPoint x="490" y="659.9999999999998" as="targetPoint" />
          </mxGeometry>
        </mxCell>
        <mxCell id="CedkutMwdIcKw9SJhQFs-72" value="Consulter données des personnages (PJ)" style="ellipse;whiteSpace=wrap;html=1;" parent="1" vertex="1">
          <mxGeometry x="570" y="680" width="120" height="70" as="geometry" />
        </mxCell>
        <mxCell id="CedkutMwdIcKw9SJhQFs-74" value="" style="endArrow=classic;html=1;fontColor=#000000;exitX=1;exitY=0.3333333333333333;exitDx=0;exitDy=0;exitPerimeter=0;entryX=0;entryY=0.5;entryDx=0;entryDy=0;" parent="1" source="CedkutMwdIcKw9SJhQFs-13" target="CedkutMwdIcKw9SJhQFs-57" edge="1">
          <mxGeometry width="50" height="50" relative="1" as="geometry">
            <mxPoint x="370" y="1160" as="sourcePoint" />
            <mxPoint x="420" y="1110" as="targetPoint" />
          </mxGeometry>
        </mxCell>
        <mxCell id="CedkutMwdIcKw9SJhQFs-78" value="" style="whiteSpace=wrap;html=1;aspect=fixed;fillColor=#dae8fc;strokeColor=none;" parent="1" vertex="1">
          <mxGeometry x="-400" y="40" width="40" height="40" as="geometry" />
        </mxCell>
        <mxCell id="CedkutMwdIcKw9SJhQFs-79" value="" style="whiteSpace=wrap;html=1;aspect=fixed;fillColor=#f8cecc;strokeColor=none;" parent="1" vertex="1">
          <mxGeometry x="-400" y="120" width="40" height="40" as="geometry" />
        </mxCell>
        <mxCell id="CedkutMwdIcKw9SJhQFs-80" value="&lt;font style=&quot;font-size: 20px&quot;&gt;Authentification&lt;/font&gt;" style="text;html=1;strokeColor=none;fillColor=none;align=left;verticalAlign=middle;whiteSpace=wrap;rounded=0;fontColor=#000000;" parent="1" vertex="1">
          <mxGeometry x="-350" y="40" width="180" height="40" as="geometry" />
        </mxCell>
        <mxCell id="CedkutMwdIcKw9SJhQFs-81" value="&lt;font style=&quot;font-size: 20px&quot;&gt;Jeu&lt;/font&gt;" style="text;html=1;strokeColor=none;align=left;verticalAlign=middle;whiteSpace=wrap;rounded=0;fontColor=#000000;" parent="1" vertex="1">
          <mxGeometry x="-350" y="120" width="170" height="40" as="geometry" />
        </mxCell>
        <mxCell id="bmJftMlM8lcIvuCktns1-1" value="Rejoindre une nouvelle campagne" style="ellipse;whiteSpace=wrap;html=1;" vertex="1" parent="1">
          <mxGeometry x="380" y="780" width="120" height="70" as="geometry" />
        </mxCell>
        <mxCell id="bmJftMlM8lcIvuCktns1-2" value="Attaquer un monstre à portée&lt;span style=&quot;color: rgba(0 , 0 , 0 , 0) ; font-family: monospace ; font-size: 0px&quot;&gt;%3CmxGraphModel%3E%3Croot%3E%3CmxCell%20id%3D%220%22%2F%3E%3CmxCell%20id%3D%221%22%20parent%3D%220%22%2F%3E%3CmxCell%20id%3D%222%22%20value%3D%22Voir%20fiche%20personnage%22%20style%3D%22ellipse%3BwhiteSpace%3Dwrap%3Bhtml%3D1%3B%22%20vertex%3D%221%22%20parent%3D%221%22%3E%3CmxGeometry%20x%3D%22370%22%20y%3D%22540%22%20width%3D%22120%22%20height%3D%2270%22%20as%3D%22geometry%22%2F%3E%3C%2FmxCell%3E%3C%2Froot%3E%3C%2FmxGraphModel%3E&lt;/span&gt;" style="ellipse;whiteSpace=wrap;html=1;" vertex="1" parent="1">
          <mxGeometry x="370" y="460" width="120" height="70" as="geometry" />
        </mxCell>
        <mxCell id="bmJftMlM8lcIvuCktns1-3" value="Choisir un monstre visible et à portée.&lt;span style=&quot;color: rgba(0 , 0 , 0 , 0) ; font-family: monospace ; font-size: 0px&quot;&gt;%3CmxGraphModel%3E%3Croot%3E%3CmxCell%20id%3D%220%22%2F%3E%3CmxCell%20id%3D%221%22%20parent%3D%220%22%2F%3E%3CmxCell%20id%3D%222%22%20value%3D%22Voir%20fiche%20personnage%22%20style%3D%22ellipse%3BwhiteSpace%3Dwrap%3Bhtml%3D1%3B%22%20vertex%3D%221%22%20parent%3D%221%22%3E%3CmxGeometry%20x%3D%22370%22%20y%3D%22540%22%20width%3D%22120%22%20height%3D%2270%22%20as%3D%22geometry%22%2F%3E%3C%2FmxCell%3E%3C%2Froot%3E%3C%2FmxGraphModel%3E&lt;/span&gt;" style="ellipse;whiteSpace=wrap;html=1;" vertex="1" parent="1">
          <mxGeometry x="570" y="400" width="120" height="70" as="geometry" />
        </mxCell>
        <mxCell id="bmJftMlM8lcIvuCktns1-4" value="Choisir l&#39;équipement avec lequel attaquer." style="ellipse;whiteSpace=wrap;html=1;" vertex="1" parent="1">
          <mxGeometry x="570" y="470" width="120" height="70" as="geometry" />
        </mxCell>
        <mxCell id="bmJftMlM8lcIvuCktns1-5" value="" style="endArrow=classic;html=1;dashed=1;exitX=0;exitY=0.5;exitDx=0;exitDy=0;entryX=1;entryY=0.5;entryDx=0;entryDy=0;" edge="1" parent="1" source="bmJftMlM8lcIvuCktns1-4" target="bmJftMlM8lcIvuCktns1-2">
          <mxGeometry width="50" height="50" relative="1" as="geometry">
            <mxPoint x="580" y="590" as="sourcePoint" />
            <mxPoint x="500" y="590" as="targetPoint" />
          </mxGeometry>
        </mxCell>
        <mxCell id="bmJftMlM8lcIvuCktns1-6" value="" style="endArrow=classic;html=1;dashed=1;exitX=0;exitY=0.5;exitDx=0;exitDy=0;entryX=1;entryY=0.5;entryDx=0;entryDy=0;" edge="1" parent="1" source="bmJftMlM8lcIvuCktns1-3" target="bmJftMlM8lcIvuCktns1-2">
          <mxGeometry width="50" height="50" relative="1" as="geometry">
            <mxPoint x="590" y="600" as="sourcePoint" />
            <mxPoint x="510" y="600" as="targetPoint" />
          </mxGeometry>
        </mxCell>
        <mxCell id="bmJftMlM8lcIvuCktns1-7" value="Ramasser un équipement" style="ellipse;whiteSpace=wrap;html=1;" vertex="1" parent="1">
          <mxGeometry x="370" y="320" width="120" height="70" as="geometry" />
        </mxCell>
        <mxCell id="bmJftMlM8lcIvuCktns1-8" value="" style="endArrow=classic;html=1;entryX=0;entryY=0.5;entryDx=0;entryDy=0;" edge="1" parent="1" target="bmJftMlM8lcIvuCktns1-7">
          <mxGeometry width="50" height="50" relative="1" as="geometry">
            <mxPoint x="240" y="400" as="sourcePoint" />
            <mxPoint x="380" y="435" as="targetPoint" />
          </mxGeometry>
        </mxCell>
        <mxCell id="bmJftMlM8lcIvuCktns1-9" value="Traiter les dés en attente" style="ellipse;whiteSpace=wrap;html=1;" vertex="1" parent="1">
          <mxGeometry x="550" y="870" width="100" height="50" as="geometry" />
        </mxCell>
        <mxCell id="bmJftMlM8lcIvuCktns1-10" value="Lancer les dés de combat des monstres" style="ellipse;whiteSpace=wrap;html=1;" vertex="1" parent="1">
          <mxGeometry x="550" y="920" width="100" height="50" as="geometry" />
        </mxCell>
        <mxCell id="bmJftMlM8lcIvuCktns1-11" value="Créer des éléments" style="ellipse;whiteSpace=wrap;html=1;" vertex="1" parent="1">
          <mxGeometry x="550" y="980" width="100" height="50" as="geometry" />
        </mxCell>
        <mxCell id="bmJftMlM8lcIvuCktns1-12" value="Changer les coordonnées" style="ellipse;whiteSpace=wrap;html=1;" vertex="1" parent="1">
          <mxGeometry x="550" y="1030" width="100" height="50" as="geometry" />
        </mxCell>
        <mxCell id="bmJftMlM8lcIvuCktns1-13" value="Mettre à jour l&#39;état des éléments" style="ellipse;whiteSpace=wrap;html=1;" vertex="1" parent="1">
          <mxGeometry x="550" y="1080" width="100" height="50" as="geometry" />
        </mxCell>
        <mxCell id="bmJftMlM8lcIvuCktns1-14" value="Créer des cartes" style="ellipse;whiteSpace=wrap;html=1;" vertex="1" parent="1">
          <mxGeometry x="550" y="1140" width="100" height="50" as="geometry" />
        </mxCell>
        <mxCell id="bmJftMlM8lcIvuCktns1-15" value="Changer de carte" style="ellipse;whiteSpace=wrap;html=1;" vertex="1" parent="1">
          <mxGeometry x="550" y="1190" width="100" height="50" as="geometry" />
        </mxCell>
        <mxCell id="bmJftMlM8lcIvuCktns1-17" value="Gérer les éléments d&#39;une carte" style="ellipse;whiteSpace=wrap;html=1;" vertex="1" parent="1">
          <mxGeometry x="550" y="1240" width="100" height="50" as="geometry" />
        </mxCell>
        <mxCell id="bmJftMlM8lcIvuCktns1-18" value="Créer et supprimer les campagnes" style="ellipse;whiteSpace=wrap;html=1;" vertex="1" parent="1">
          <mxGeometry x="550" y="1290" width="100" height="50" as="geometry" />
        </mxCell>
        <mxCell id="bmJftMlM8lcIvuCktns1-19" value="Mettre à jour l&#39;état des personnages" style="ellipse;whiteSpace=wrap;html=1;" vertex="1" parent="1">
          <mxGeometry x="550" y="1360" width="100" height="50" as="geometry" />
        </mxCell>
        <mxCell id="bmJftMlM8lcIvuCktns1-20" value="Déplacer les personnages" style="ellipse;whiteSpace=wrap;html=1;" vertex="1" parent="1">
          <mxGeometry x="550" y="1410" width="100" height="50" as="geometry" />
        </mxCell>
        <mxCell id="bmJftMlM8lcIvuCktns1-21" value="" style="endArrow=classic;html=1;entryX=0;entryY=0.5;entryDx=0;entryDy=0;" edge="1" parent="1" target="bmJftMlM8lcIvuCktns1-1">
          <mxGeometry width="50" height="50" relative="1" as="geometry">
            <mxPoint x="60" y="800" as="sourcePoint" />
            <mxPoint x="390" y="750" as="targetPoint" />
          </mxGeometry>
        </mxCell>
        <mxCell id="bmJftMlM8lcIvuCktns1-22" value="" style="endArrow=classic;html=1;dashed=1;exitX=0;exitY=0.5;exitDx=0;exitDy=0;entryX=0.99;entryY=0.361;entryDx=0;entryDy=0;entryPerimeter=0;" edge="1" parent="1" source="bmJftMlM8lcIvuCktns1-9" target="CedkutMwdIcKw9SJhQFs-29">
          <mxGeometry width="50" height="50" relative="1" as="geometry">
            <mxPoint x="580" y="725" as="sourcePoint" />
            <mxPoint x="500" y="675" as="targetPoint" />
          </mxGeometry>
        </mxCell>
        <mxCell id="bmJftMlM8lcIvuCktns1-23" value="" style="endArrow=classic;html=1;dashed=1;exitX=0;exitY=0.5;exitDx=0;exitDy=0;entryX=1;entryY=0.5;entryDx=0;entryDy=0;" edge="1" parent="1" source="bmJftMlM8lcIvuCktns1-10" target="CedkutMwdIcKw9SJhQFs-29">
          <mxGeometry width="50" height="50" relative="1" as="geometry">
            <mxPoint x="590" y="735" as="sourcePoint" />
            <mxPoint x="510" y="685" as="targetPoint" />
          </mxGeometry>
        </mxCell>
        <mxCell id="bmJftMlM8lcIvuCktns1-24" value="" style="endArrow=classic;html=1;dashed=1;exitX=0;exitY=0.5;exitDx=0;exitDy=0;entryX=1;entryY=0.5;entryDx=0;entryDy=0;" edge="1" parent="1" source="bmJftMlM8lcIvuCktns1-11" target="CedkutMwdIcKw9SJhQFs-33">
          <mxGeometry width="50" height="50" relative="1" as="geometry">
            <mxPoint x="600" y="745" as="sourcePoint" />
            <mxPoint x="520" y="695" as="targetPoint" />
          </mxGeometry>
        </mxCell>
        <mxCell id="bmJftMlM8lcIvuCktns1-25" value="" style="endArrow=classic;html=1;dashed=1;exitX=0;exitY=0.5;exitDx=0;exitDy=0;entryX=1;entryY=0.5;entryDx=0;entryDy=0;" edge="1" parent="1" source="bmJftMlM8lcIvuCktns1-12" target="CedkutMwdIcKw9SJhQFs-33">
          <mxGeometry width="50" height="50" relative="1" as="geometry">
            <mxPoint x="560" y="1015" as="sourcePoint" />
            <mxPoint x="520" y="1115" as="targetPoint" />
          </mxGeometry>
        </mxCell>
        <mxCell id="bmJftMlM8lcIvuCktns1-26" value="" style="endArrow=classic;html=1;dashed=1;exitX=0;exitY=0.5;exitDx=0;exitDy=0;entryX=1;entryY=0.5;entryDx=0;entryDy=0;" edge="1" parent="1" source="bmJftMlM8lcIvuCktns1-13" target="CedkutMwdIcKw9SJhQFs-33">
          <mxGeometry width="50" height="50" relative="1" as="geometry">
            <mxPoint x="570" y="1025" as="sourcePoint" />
            <mxPoint x="530" y="1125" as="targetPoint" />
          </mxGeometry>
        </mxCell>
        <mxCell id="bmJftMlM8lcIvuCktns1-27" value="" style="endArrow=classic;html=1;dashed=1;exitX=0.708;exitY=0.733;exitDx=0;exitDy=0;entryX=1;entryY=0.5;entryDx=0;entryDy=0;exitPerimeter=0;" edge="1" parent="1" source="CedkutMwdIcKw9SJhQFs-62" target="CedkutMwdIcKw9SJhQFs-40">
          <mxGeometry width="50" height="50" relative="1" as="geometry">
            <mxPoint x="580" y="1035" as="sourcePoint" />
            <mxPoint x="540" y="1135" as="targetPoint" />
          </mxGeometry>
        </mxCell>
        <mxCell id="bmJftMlM8lcIvuCktns1-28" value="" style="endArrow=classic;html=1;dashed=1;exitX=0;exitY=0.5;exitDx=0;exitDy=0;entryX=1;entryY=0.5;entryDx=0;entryDy=0;" edge="1" parent="1" source="bmJftMlM8lcIvuCktns1-17" target="CedkutMwdIcKw9SJhQFs-40">
          <mxGeometry width="50" height="50" relative="1" as="geometry">
            <mxPoint x="590" y="1045" as="sourcePoint" />
            <mxPoint x="550" y="1145" as="targetPoint" />
          </mxGeometry>
        </mxCell>
        <mxCell id="bmJftMlM8lcIvuCktns1-29" value="" style="endArrow=classic;html=1;dashed=1;exitX=0;exitY=0.5;exitDx=0;exitDy=0;entryX=1;entryY=0.5;entryDx=0;entryDy=0;exitPerimeter=0;" edge="1" parent="1" source="bmJftMlM8lcIvuCktns1-18" target="CedkutMwdIcKw9SJhQFs-67">
          <mxGeometry width="50" height="50" relative="1" as="geometry">
            <mxPoint x="560" y="1275" as="sourcePoint" />
            <mxPoint x="510" y="1225" as="targetPoint" />
          </mxGeometry>
        </mxCell>
        <mxCell id="bmJftMlM8lcIvuCktns1-30" value="" style="endArrow=classic;html=1;dashed=1;exitX=0;exitY=0.5;exitDx=0;exitDy=0;entryX=1;entryY=0.5;entryDx=0;entryDy=0;" edge="1" parent="1" source="bmJftMlM8lcIvuCktns1-19" target="CedkutMwdIcKw9SJhQFs-57">
          <mxGeometry width="50" height="50" relative="1" as="geometry">
            <mxPoint x="560" y="1325" as="sourcePoint" />
            <mxPoint x="510" y="1325" as="targetPoint" />
          </mxGeometry>
        </mxCell>
        <mxCell id="bmJftMlM8lcIvuCktns1-31" value="" style="endArrow=classic;html=1;dashed=1;exitX=0;exitY=0.5;exitDx=0;exitDy=0;entryX=1;entryY=0.5;entryDx=0;entryDy=0;" edge="1" parent="1" source="bmJftMlM8lcIvuCktns1-20" target="CedkutMwdIcKw9SJhQFs-57">
          <mxGeometry width="50" height="50" relative="1" as="geometry">
            <mxPoint x="570" y="1335" as="sourcePoint" />
            <mxPoint x="520" y="1335" as="targetPoint" />
          </mxGeometry>
        </mxCell>
        <mxCell id="bmJftMlM8lcIvuCktns1-32" value="Gérer son compte" style="ellipse;whiteSpace=wrap;html=1;" vertex="1" parent="1">
          <mxGeometry x="240" y="100" width="120" height="70" as="geometry" />
        </mxCell>
        <mxCell id="bmJftMlM8lcIvuCktns1-34" value="Changer d&#39;identifiant ou de mot de passe" style="ellipse;whiteSpace=wrap;html=1;" vertex="1" parent="1">
          <mxGeometry x="490" y="100" width="120" height="70" as="geometry" />
        </mxCell>
        <mxCell id="bmJftMlM8lcIvuCktns1-35" value="" style="endArrow=classic;html=1;dashed=1;exitX=0;exitY=0.5;exitDx=0;exitDy=0;entryX=1;entryY=0.5;entryDx=0;entryDy=0;" edge="1" parent="1" source="bmJftMlM8lcIvuCktns1-34" target="bmJftMlM8lcIvuCktns1-32">
          <mxGeometry width="50" height="50" relative="1" as="geometry">
            <mxPoint x="580" y="445" as="sourcePoint" />
            <mxPoint x="500" y="505" as="targetPoint" />
          </mxGeometry>
        </mxCell>
        <mxCell id="bmJftMlM8lcIvuCktns1-36" value="" style="endArrow=classic;html=1;entryX=0;entryY=0.5;entryDx=0;entryDy=0;" edge="1" parent="1" target="bmJftMlM8lcIvuCktns1-32">
          <mxGeometry width="50" height="50" relative="1" as="geometry">
            <mxPoint x="-20" y="110" as="sourcePoint" />
            <mxPoint x="250" y="65" as="targetPoint" />
          </mxGeometry>
        </mxCell>
      </root>
    </mxGraphModel>
  </diagram>
</mxfile>
